<?xml version="1.0" encoding="UTF-8"?>
<svg id="Capa_2" data-name="Capa 2" xmlns="http://www.w3.org/2000/svg" viewBox="0 0 6608.41 851.56">
  <defs>
    <style>
      .cls-1 {
        fill: #000;
        stroke-width: 0px;
      }

      .cls-2 {
        isolation: isolate;
      }
    </style>
  </defs>
  <g id="Capa_1-2" data-name="Capa 1">
    <g class="cls-2">
      <path class="cls-1" d="M1322.62,140.76h133.6l199.92,565.05h-128.04l-37.29-116.15h-208.09l-38.3,116.15h-123.5l201.71-565.05ZM1314.84,492.29h144.71l-71.38-222.34-73.33,222.34Z"/>
      <path class="cls-1" d="M2090.12,155.33c20.81,8.95,38.44,22.11,52.9,39.48,11.96,14.32,21.43,30.16,28.41,47.54,6.98,17.38,10.47,37.18,10.47,59.42,0,26.83-6.77,53.23-20.32,79.16-13.55,25.94-35.91,44.28-67.09,55.01,26.07,10.48,44.53,25.37,55.39,44.66,10.86,19.3,16.29,48.75,16.29,88.36v37.95c0,25.82,1.04,43.32,3.12,52.52,3.11,14.57,10.38,25.3,21.8,32.2v14.18h-130.34c-3.58-12.52-6.13-22.62-7.67-30.28-3.07-15.84-4.73-32.07-4.98-48.69l-.77-52.52c-.49-36.03-6.71-60.05-18.68-72.07-11.97-12.01-34.39-18.02-67.27-18.02h-115.32v221.57h-115.39V140.76h270.27c38.62.77,68.34,5.62,89.15,14.57ZM1846.08,238.9v151.81h127.07c25.24,0,44.17-3.07,56.8-9.2,22.33-10.73,33.5-31.94,33.5-63.64,0-34.24-10.81-57.24-32.41-69-12.14-6.64-30.34-9.97-54.61-9.97h-130.34Z"/>
      <path class="cls-1" d="M2623.11,311.93c27.36,22.62,41.04,60.13,41.04,112.51v281.38h-111.94v-254.16c0-21.98-2.92-38.84-8.75-50.6-10.66-21.47-30.96-32.2-60.89-32.2-36.79,0-62.03,15.72-75.73,47.15-7.1,16.62-10.66,37.83-10.66,63.64v226.17h-109.25v-417.08h105.8v60.95c13.99-21.47,27.23-36.93,39.7-46.39,22.39-16.87,50.77-25.3,85.13-25.3,43.01,0,78.19,11.31,105.55,33.93Z"/>
      <path class="cls-1" d="M3038.02,296.43c29.15,13.06,53.22,33.66,72.21,61.81,17.11,24.83,28.21,53.62,33.29,86.39,2.94,19.2,4.14,46.84,3.6,82.93h-304.33c1.7,41.92,16.26,71.3,43.7,88.17,16.69,10.48,36.77,15.72,60.24,15.72,24.89,0,45.11-6.39,60.67-19.17,8.48-6.9,15.98-16.48,22.49-28.75h111.54c-2.94,24.79-16.44,49.97-40.5,75.52-37.43,40.63-89.83,60.95-157.2,60.95-55.61,0-104.67-17.14-147.18-51.41-42.51-34.27-63.76-90.04-63.76-167.29,0-72.38,19.19-127.89,57.56-166.51,38.37-38.62,88.18-57.94,149.42-57.94,36.36,0,69.12,6.53,98.27,19.58ZM2874.57,390.81c-15.44,15.91-25.14,37.47-29.1,64.68h188.22c-1.99-29-11.69-51.01-29.1-66.03-17.42-15.02-39.02-22.53-64.8-22.53-28.04,0-49.78,7.96-65.22,23.88Z"/>
      <path class="cls-1" d="M3311.24,287.97v251.86c0,23.77,2.8,41.66,8.39,53.67,9.92,21.22,29.37,31.82,58.36,31.82,37.12,0,62.56-15.08,76.29-45.23,7.12-16.35,10.68-37.95,10.68-64.79v-227.32h110.79v417.85h-106.19v-59.04c-1.02,1.28-3.57,5.12-7.64,11.5-4.08,6.39-8.92,12.02-14.53,16.87-17.08,15.33-33.58,25.82-49.51,31.43-15.93,5.62-34.6,8.43-56,8.43-61.67,0-103.21-22.23-124.62-66.7-11.98-24.53-17.96-60.69-17.96-108.49v-251.86h111.94Z"/>
      <path class="cls-1" d="M3914.05,278.19c1.4.13,4.54.32,9.39.58v111.94c-6.9-.77-13.03-1.28-18.4-1.53-5.37-.25-9.72-.38-13.03-.38-43.96,0-73.48,14.32-88.55,42.94-8.43,16.1-12.65,40.89-12.65,74.37v199.72h-110.02v-417.85h104.27v72.84c16.87-27.85,31.56-46.89,44.08-57.12,20.44-17.12,47.02-25.68,79.74-25.68,2.04,0,3.77.07,5.17.19Z"/>
      <path class="cls-1" d="M4335.93,654.7c-35.27,43.53-88.81,65.3-160.62,65.3s-125.35-21.77-160.62-65.3c-35.27-43.53-52.9-95.94-52.9-157.23s17.63-112.48,52.9-156.65c35.27-44.17,88.8-66.27,160.62-66.27s125.35,22.09,160.62,66.27c35.27,44.17,52.9,96.39,52.9,156.65s-17.63,113.7-52.9,157.23ZM4248.52,594.32c17.12-22.71,25.68-54.99,25.68-96.85s-8.57-74.07-25.68-96.65c-17.12-22.58-41.66-33.88-73.6-33.88s-56.54,11.3-73.79,33.88c-17.25,22.58-25.88,54.8-25.88,96.65s8.63,74.14,25.88,96.85c17.25,22.71,41.84,34.06,73.79,34.06s56.48-11.35,73.6-34.06Z"/>
      <path class="cls-1" d="M4529.82,199.8c45.51-46.51,103.41-69.77,173.7-69.77,94.05,0,162.82,31.18,206.31,93.54,24.02,35.02,36.91,70.15,38.68,105.42h-118.07c-7.51-27.09-17.16-47.54-28.92-61.34-21.03-24.53-52.2-36.8-93.51-36.8s-75.24,17.32-99.53,51.94c-24.28,34.63-36.42,83.64-36.42,147.01s12.81,110.85,38.44,142.41c25.62,31.57,58.18,47.34,97.68,47.34s71.37-13.54,92.63-40.63c11.75-14.57,21.5-36.42,29.25-65.55h117.3c-10.12,61.59-35.97,111.69-77.56,150.27-41.59,38.59-94.87,57.89-159.85,57.89-80.4,0-143.61-26.07-189.62-78.2-46.01-52.39-69.02-124.2-69.02-215.44,0-98.65,26.17-174.67,78.51-228.09Z"/>
      <path class="cls-1" d="M5204.4,140.76h133.6l199.92,565.05h-128.04l-37.29-116.15h-208.08l-38.3,116.15h-123.5l201.71-565.05ZM5196.62,492.29h144.71l-71.38-222.34-73.33,222.34Z"/>
      <path class="cls-1" d="M5971.89,155.33c20.81,8.95,38.44,22.11,52.9,39.48,11.96,14.32,21.43,30.16,28.41,47.54,6.98,17.38,10.47,37.18,10.47,59.42,0,26.83-6.77,53.23-20.32,79.16-13.55,25.94-35.91,44.28-67.09,55.01,26.07,10.48,44.53,25.37,55.39,44.66,10.86,19.3,16.29,48.75,16.29,88.36v37.95c0,25.82,1.04,43.32,3.12,52.52,3.11,14.57,10.38,25.3,21.8,32.2v14.18h-130.34c-3.58-12.52-6.13-22.62-7.67-30.28-3.07-15.84-4.73-32.07-4.98-48.69l-.77-52.52c-.49-36.03-6.71-60.05-18.68-72.07-11.97-12.01-34.39-18.02-67.27-18.02h-115.32v221.57h-115.39V140.76h270.27c38.62.77,68.34,5.62,89.15,14.57ZM5727.86,238.9v151.81h127.07c25.24,0,44.17-3.07,56.8-9.2,22.33-10.73,33.5-31.94,33.5-63.64,0-34.24-10.81-57.24-32.41-69-12.14-6.64-30.34-9.97-54.61-9.97h-130.34Z"/>
      <path class="cls-1" d="M6594.61,240.82h-299.01v119.99h274.48v98.14h-274.48v145.29h312.81v101.59h-428.2V140.76h414.4v100.05Z"/>
    </g>
    <g>
      <path class="cls-1" d="M123.52,293.1c-2.36-3.93-5.5-7.85-8.64-10.99l149.95-149.95c13.35,13.35,32.97,20.41,53.39,16.49,8.64-1.57,17.27-5.5,23.55-10.21l155.45,155.45c-4.71,8.64-6.28,18.06-3.93,28.26,4.71,23.55,27.48,39.25,51.03,34.54,23.55-4.71,39.25-27.48,34.54-51.03-4.71-23.55-27.48-39.25-51.03-34.54-7.07,1.57-12.56,3.93-18.06,7.85l-154.66-154.66c9.42-12.56,13.35-29.05,10.21-46.32-6.28-32.19-37.68-53.39-69.87-47.11-32.19,6.28-53.39,37.68-47.11,69.87.79,5.5,3.14,10.99,5.5,15.7l-153.88,153.88c-21.2-11.78-47.89-11.78-69.09,2.36-31.4,20.41-40.04,62.02-20.41,93.43,20.41,31.4,62.02,40.04,93.43,20.41,31.41-20.41,40.04-62.02,19.63-93.43Z"/>
      <path class="cls-1" d="M366.9,748.45c-20.41-31.4-62.02-40.04-93.43-20.41-3.93,2.36-7.85,5.5-10.99,8.64l-149.95-149.95c13.35-13.35,20.41-32.97,16.49-53.39-1.57-8.64-5.5-17.27-10.21-23.55l161.73-161.73c7.07,2.36,14.92,3.14,22.77,1.57,23.55-4.71,39.25-27.48,34.54-51.03-4.71-23.55-27.48-39.25-51.03-34.54-23.55,4.71-39.25,27.48-34.54,51.03,1.57,8.64,6.28,16.49,11.78,22.77l-158.59,158.59c-12.56-9.42-29.05-13.35-46.32-10.21-32.19,6.28-53.39,37.68-47.11,69.87,6.28,32.19,37.68,53.39,69.87,47.11,5.5-.79,10.99-3.14,15.7-5.5l153.88,153.88c-11.78,21.2-11.78,47.89,2.36,69.09,20.41,31.4,62.02,40.04,93.43,20.41,31.4-18.84,40.04-61.24,19.63-92.64Z"/>
      <path class="cls-1" d="M819.11,488.59c-20.41-31.4-62.02-40.04-93.43-20.41-31.4,20.41-40.04,62.02-20.41,93.43,2.36,3.93,5.5,7.85,8.64,10.99l-150.74,150.74c-7.07-10.21-17.27-18.84-29.83-23.55-19.63-7.07-40.04-3.14-55.74,7.85l-153.09-153.09c2.36-7.07,3.14-14.92,1.57-22.77-4.71-23.55-27.48-39.25-51.03-34.54-23.55,4.71-39.25,27.48-34.54,51.03,4.71,23.55,27.48,39.25,51.03,34.54,8.64-1.57,16.49-6.28,22.77-11.78l149.95,149.95c-3.14,4.71-5.5,9.42-7.85,14.92-10.99,30.62,4.71,65.16,35.33,76.94,30.62,10.99,65.16-4.71,76.94-35.33,3.93-10.99,4.71-23.55,2.36-34.54l158.59-158.59c21.2,11.78,47.89,11.78,69.09-2.36,32.19-20.41,40.82-62.02,20.41-93.43Z"/>
      <path class="cls-1" d="M454.83,103.89c20.41,31.4,62.02,40.04,93.43,20.41,3.93-2.36,7.85-5.5,10.99-8.64l150.74,150.74c-19.63,12.56-30.62,36.9-25.91,61.24,1.57,8.64,5.5,17.27,10.21,23.55l-153.09,153.09c-7.07-2.36-14.92-3.14-22.77-1.57-23.55,4.71-39.25,27.48-34.54,51.03,4.71,23.55,27.48,39.25,51.03,34.54,23.55-4.71,39.25-27.48,34.54-51.03-1.57-8.64-6.28-16.49-11.78-22.77l149.95-149.95c12.56,9.42,29.05,13.35,46.32,10.21,32.19-6.28,53.39-37.68,47.11-69.87-6.28-32.19-37.68-53.39-69.87-47.11-.79,0-1.57.79-2.36.79l-158.59-158.59c11.78-21.2,11.78-47.89-2.36-69.09-20.41-31.4-62.02-40.04-93.43-20.41-30.62,20.41-40.04,62.02-19.63,93.43Z"/>
      <path class="cls-1" d="M115.67,97.61c-10.21-10.21-26.69-10.21-36.9,0-10.21,10.21-10.21,26.69,0,36.11,10.21,10.21,26.69,10.21,36.12,0,10.2-10.21,10.2-25.91.78-36.11Z"/>
      <path class="cls-1" d="M717.05,128.23c8.64,9.42,23.55,10.99,32.97,1.57,9.42-8.64,10.99-23.55,1.57-32.97-8.64-9.42-23.55-10.99-32.97-1.57-9.42,8.64-10.2,23.55-1.57,32.97Z"/>
      <path class="cls-1" d="M753.95,745.31c-.79-13.35-11.78-22.77-25.12-21.98-13.35.79-22.77,11.78-21.98,25.12.79,13.35,11.78,22.77,25.12,21.98,13.35-.79,22.77-12.56,21.98-25.12Z"/>
    </g>
  </g>
</svg>